# xmcd
#
# Track frame offsets:
#  150
#  22926
#  36519
#  51991
#  65943
#  81725
#  97685
#  113849
#  128024
#  143684
#
# Disc length: 2116 seconds
#
# Revision: 0
# Processed by: cddbd v1.5.1PL2 Copyright (c) Steve Scherf et al.
# Submitted via: Collectorz.com_Music_Collector 6.9
#
DISCID=8a08420a
DTITLE=Dixie Chicks - Shouldn't Told You That
DYEAR=1994
DGENRE=Country
TTITLE0=Planet Of Love
TTITLE1=Whistles And Bells
TTITLE2=I'm Falling Again
TTITLE3=Shouldn't Told You That
TTITLE4=Desire
TTITLE5=There Goes My Dream
TTITLE6=One Heart Away
TTITLE7=The Thrill Is In The Chase
TTITLE8=Wasn't Looking For You
TTITLE9=I've Only Got Myself To Blame
EXTD=
EXTT0=
EXTT1=
EXTT2=
EXTT3=
EXTT4=
EXTT5=
EXTT6=
EXTT7=
EXTT8=
EXTT9=
PLAYORDER=
